{"asset":{"version":"2.0","generator":"babylon.js glTF exporter for 3dsmax 2020 v20211102.1"},"scene":0,"scenes":[{"nodes":[0]}],"nodes":[{"mesh":0,"name":"1M_BOX"}],"meshes":[{"primitives":[{"attributes":{"POSITION":1,"NORMAL":2,"TEXCOORD_0":3},"indices":0,"material":0}],"name":"1M_BOX"}],"accessors":[{"bufferView":0,"componentType":5123,"count":36,"type":"SCALAR","name":"accessorIndices"},{"bufferView":1,"componentType":5126,"count":24,"max":[0.5,1.0,0.5],"min":[-0.5,0.0,-0.5],"type":"VEC3","name":"accessorPositions"},{"bufferView":1,"byteOffset":288,"componentType":5126,"count":24,"type":"VEC3","name":"accessorNormals"},{"bufferView":2,"componentType":5126,"count":24,"type":"VEC2","name":"accessorUVs"},{"bufferView":3,"componentType":5126,"count":122,"max":[4.9666667],"min":[0.0],"type":"SCALAR","name":"accessorAnimationInput"},{"bufferView":4,"componentType":5126,"count":122,"type":"VEC3","name":"accessorAnimationPositions"}],"bufferViews":[{"buffer":0,"byteLength":72,"name":"bufferViewScalar"},{"buffer":0,"byteOffset":72,"byteLength":576,"byteStride":12,"name":"bufferViewFloatVec3"},{"buffer":0,"byteOffset":648,"byteLength":192,"byteStride":8,"name":"bufferViewFloatVec2"},{"buffer":0,"byteOffset":840,"byteLength":488,"name":"bufferViewAnimationFloatScalar"},{"buffer":0,"byteOffset":1328,"byteLength":1464,"name":"bufferViewAnimationFloatVec3"}],"buffers":[{"uri":"1M_BOX_ANI.bin","byteLength":2792}],"materials":[{"pbrMetallicRoughness":{"baseColorFactor" : [1.0,1.0,1.0,1],"baseColorTexture":{"index":0},"metallicFactor":0.0,"roughnessFactor":0.450053632},"name":"Material #25"}],"textures":[{"sampler":0,"source":0,"name":"map.jpg"}],"images":[{"uri":"map.jpg"}],"samplers":[{"magFilter":9729,"minFilter":9987}],"animations":[{"channels":[{"sampler":0,"target":{"node":0,"path":"translation"}}],"samplers":[{"input":4,"output":5}],"name":"All Animations"}]}