{"asset":{"version":"2.0","generator":"babylon.js glTF exporter for 3dsmax 2020 v20211102.1"},"scene":0,"scenes":[{"nodes":[0,1,20]}],"nodes":[{"skin":0,"mesh":0,"translation":[-2.49915488E-09,1.6,1.6],"rotation":[0.7071068,0.0,0.0,0.7071067],"scale":[0.75,0.75,0.75],"name":"omikuji"},{"children":[2,11],"translation":[0.596152663,1.15310347,1.60000038],"name":"Point010"},{"children":[3,4,5,6,7,8,9,10],"name":"Point001"},{"translation":[0.0,-0.542804,0.0105773211],"name":"Point002"},{"translation":[0.0,-1.16728759,-0.08430362],"name":"Point003"},{"translation":[0.0,-1.25561833,-0.620602965],"name":"Point004"},{"translation":[0.0,-1.01701164,-1.00402176],"name":"Point005"},{"translation":[0.0,-0.7102523,-1.27330554],"name":"Point006"},{"translation":[0.0,-0.3880999,-1.5142839],"name":"Point007"},{"translation":[0.0,0.0184332132,-1.8193115],"name":"Point008"},{"translation":[0.0,0.5320618,-2.25011468],"name":"Point009"},{"children":[12],"translation":[4.7326088E-05,0.443582773,-2.17362881],"rotation":[-0.643024445,-0.294096142,0.6430455,0.2941421],"scale":[1.29999983,1.29999983,1.3],"name":"Bone001"},{"children":[13],"translation":[0.112500072,-5.96046448E-08,2.98023224E-08],"rotation":[-5.455149E-09,1.46992534E-08,0.000206008554,1.0],"name":"Bone002"},{"children":[14],"translation":[0.112500072,-5.96046448E-08,2.98023224E-08],"rotation":[9.094949E-13,1.324579E-07,-1.34110465E-07,1.0],"scale":[0.9999999,0.9999999,1.0],"name":"Bone003"},{"children":[15],"translation":[0.112500191,5.96046448E-08,2.98023224E-08],"rotation":[-1.8189893E-12,-1.32456989E-07,1.490116E-07,1.0],"scale":[1.00000012,1.00000012,1.0],"name":"Bone004"},{"children":[16],"translation":[0.112499833,-5.96046448E-08,2.98023224E-08],"rotation":[-1.8189894E-12,1.3245517E-07,-1.49011612E-08,1.0],"name":"Bone005"},{"children":[17],"translation":[0.112500072,0.0,2.98023224E-08],"rotation":[7.275958E-12,-1.32453351E-07,-1.19209275E-07,1.0],"scale":[1.00000012,1.00000012,1.0],"name":"Bone006"},{"children":[18],"translation":[0.112500072,5.96046448E-08,2.98023224E-08],"rotation":[-9.094947E-13,-9.094947E-13,8.94069743E-08,1.0],"scale":[0.99999994,0.99999994,1.0],"name":"Bone007"},{"children":[19],"translation":[0.112499952,-5.96046448E-08,-2.98023224E-08],"rotation":[5.45696864E-12,2.72848432E-12,1.04308143E-07,1.0],"scale":[0.9999999,0.9999999,1.0],"name":"Bone008"},{"translation":[0.112499952,0.0,-2.98023224E-08],"rotation":[-4.54747242E-13,-8.742336E-08,1.4901163E-08,1.0],"scale":[0.99999994,0.99999994,1.0],"name":"Bone009"},{"translation":[0.5962,2.48153329,-1.33909893],"name":"IK Chain001"}],"meshes":[{"primitives":[{"attributes":{"POSITION":1,"NORMAL":2,"TEXCOORD_0":3,"JOINTS_0":4,"WEIGHTS_0":5},"indices":0,"material":0},{"attributes":{"POSITION":7,"NORMAL":8,"TEXCOORD_0":9,"JOINTS_0":10,"WEIGHTS_0":11},"indices":6,"material":1}],"name":"omikuji"}],"accessors":[{"bufferView":0,"componentType":5123,"count":96,"type":"SCALAR","name":"accessorIndices"},{"bufferView":1,"componentType":5126,"count":27,"max":[1.18493342,-2.89814973,0.00443702936],"min":[0.404931724,-3.91881871,-1.175396],"type":"VEC3","name":"accessorPositions"},{"bufferView":1,"byteOffset":324,"componentType":5126,"count":27,"type":"VEC3","name":"accessorNormals"},{"bufferView":2,"componentType":5126,"count":27,"type":"VEC2","name":"accessorUVs"},{"bufferView":3,"componentType":5123,"count":27,"type":"VEC4","name":"accessorJoints"},{"bufferView":4,"componentType":5126,"count":27,"type":"VEC4","name":"accessorWeights"},{"bufferView":0,"byteOffset":192,"componentType":5123,"count":216,"type":"SCALAR","name":"accessorIndices"},{"bufferView":1,"byteOffset":648,"componentType":5126,"count":75,"max":[1.18493438,-2.888315,0.00443702936],"min":[0.404931724,-3.91881871,-1.18390167],"type":"VEC3","name":"accessorPositions"},{"bufferView":1,"byteOffset":1548,"componentType":5126,"count":75,"type":"VEC3","name":"accessorNormals"},{"bufferView":2,"byteOffset":216,"componentType":5126,"count":75,"type":"VEC2","name":"accessorUVs"},{"bufferView":3,"byteOffset":216,"componentType":5123,"count":75,"type":"VEC4","name":"accessorJoints"},{"bufferView":4,"byteOffset":432,"componentType":5126,"count":75,"type":"VEC4","name":"accessorWeights"},{"bufferView":5,"componentType":5126,"count":10,"type":"MAT4","name":"accessorInverseBindMatrices"},{"bufferView":6,"componentType":5126,"count":122,"max":[4.9666667],"min":[0.0],"type":"SCALAR","name":"accessorAnimationInput"},{"bufferView":7,"componentType":5126,"count":122,"type":"VEC3","name":"accessorAnimationPositions"},{"bufferView":8,"componentType":5126,"count":122,"type":"VEC4","name":"accessorAnimationRotations"},{"bufferView":7,"byteOffset":1464,"componentType":5126,"count":122,"type":"VEC3","name":"accessorAnimationScales"},{"bufferView":6,"byteOffset":488,"componentType":5126,"count":122,"max":[4.9666667],"min":[0.0],"type":"SCALAR","name":"accessorAnimationInput"},{"bufferView":7,"byteOffset":2928,"componentType":5126,"count":122,"type":"VEC3","name":"accessorAnimationPositions"},{"bufferView":8,"byteOffset":1952,"componentType":5126,"count":122,"type":"VEC4","name":"accessorAnimationRotations"},{"bufferView":7,"byteOffset":4392,"componentType":5126,"count":122,"type":"VEC3","name":"accessorAnimationScales"},{"bufferView":6,"byteOffset":976,"componentType":5126,"count":122,"max":[4.9666667],"min":[0.0],"type":"SCALAR","name":"accessorAnimationInput"},{"bufferView":7,"byteOffset":5856,"componentType":5126,"count":122,"type":"VEC3","name":"accessorAnimationPositions"},{"bufferView":8,"byteOffset":3904,"componentType":5126,"count":122,"type":"VEC4","name":"accessorAnimationRotations"},{"bufferView":7,"byteOffset":7320,"componentType":5126,"count":122,"type":"VEC3","name":"accessorAnimationScales"},{"bufferView":6,"byteOffset":1464,"componentType":5126,"count":122,"max":[4.9666667],"min":[0.0],"type":"SCALAR","name":"accessorAnimationInput"},{"bufferView":7,"byteOffset":8784,"componentType":5126,"count":122,"type":"VEC3","name":"accessorAnimationPositions"},{"bufferView":8,"byteOffset":5856,"componentType":5126,"count":122,"type":"VEC4","name":"accessorAnimationRotations"},{"bufferView":7,"byteOffset":10248,"componentType":5126,"count":122,"type":"VEC3","name":"accessorAnimationScales"},{"bufferView":6,"byteOffset":1952,"componentType":5126,"count":122,"max":[4.9666667],"min":[0.0],"type":"SCALAR","name":"accessorAnimationInput"},{"bufferView":7,"byteOffset":11712,"componentType":5126,"count":122,"type":"VEC3","name":"accessorAnimationPositions"},{"bufferView":8,"byteOffset":7808,"componentType":5126,"count":122,"type":"VEC4","name":"accessorAnimationRotations"},{"bufferView":7,"byteOffset":13176,"componentType":5126,"count":122,"type":"VEC3","name":"accessorAnimationScales"},{"bufferView":6,"byteOffset":2440,"componentType":5126,"count":122,"max":[4.9666667],"min":[0.0],"type":"SCALAR","name":"accessorAnimationInput"},{"bufferView":7,"byteOffset":14640,"componentType":5126,"count":122,"type":"VEC3","name":"accessorAnimationPositions"},{"bufferView":8,"byteOffset":9760,"componentType":5126,"count":122,"type":"VEC4","name":"accessorAnimationRotations"},{"bufferView":7,"byteOffset":16104,"componentType":5126,"count":122,"type":"VEC3","name":"accessorAnimationScales"},{"bufferView":6,"byteOffset":2928,"componentType":5126,"count":122,"max":[4.9666667],"min":[0.0],"type":"SCALAR","name":"accessorAnimationInput"},{"bufferView":7,"byteOffset":17568,"componentType":5126,"count":122,"type":"VEC3","name":"accessorAnimationPositions"},{"bufferView":8,"byteOffset":11712,"componentType":5126,"count":122,"type":"VEC4","name":"accessorAnimationRotations"},{"bufferView":7,"byteOffset":19032,"componentType":5126,"count":122,"type":"VEC3","name":"accessorAnimationScales"},{"bufferView":6,"byteOffset":3416,"componentType":5126,"count":122,"max":[4.9666667],"min":[0.0],"type":"SCALAR","name":"accessorAnimationInput"},{"bufferView":7,"byteOffset":20496,"componentType":5126,"count":122,"type":"VEC3","name":"accessorAnimationPositions"},{"bufferView":8,"byteOffset":13664,"componentType":5126,"count":122,"type":"VEC4","name":"accessorAnimationRotations"},{"bufferView":7,"byteOffset":21960,"componentType":5126,"count":122,"type":"VEC3","name":"accessorAnimationScales"},{"bufferView":6,"byteOffset":3904,"componentType":5126,"count":122,"max":[4.9666667],"min":[0.0],"type":"SCALAR","name":"accessorAnimationInput"},{"bufferView":7,"byteOffset":23424,"componentType":5126,"count":122,"type":"VEC3","name":"accessorAnimationPositions"},{"bufferView":8,"byteOffset":15616,"componentType":5126,"count":122,"type":"VEC4","name":"accessorAnimationRotations"},{"bufferView":7,"byteOffset":24888,"componentType":5126,"count":122,"type":"VEC3","name":"accessorAnimationScales"}],"bufferViews":[{"buffer":0,"byteLength":624,"name":"bufferViewScalar"},{"buffer":0,"byteOffset":624,"byteLength":2448,"byteStride":12,"name":"bufferViewFloatVec3"},{"buffer":0,"byteOffset":3072,"byteLength":816,"byteStride":8,"name":"bufferViewFloatVec2"},{"buffer":0,"byteOffset":3888,"byteLength":816,"byteStride":8,"name":"bufferViewUnsignedShortVec4"},{"buffer":0,"byteOffset":4704,"byteLength":1632,"byteStride":16,"name":"bufferViewFloatVec4"},{"buffer":0,"byteOffset":6336,"byteLength":640,"name":"bufferViewFloatMat4"},{"buffer":0,"byteOffset":6976,"byteLength":4392,"name":"bufferViewAnimationFloatScalar"},{"buffer":0,"byteOffset":11368,"byteLength":26352,"name":"bufferViewAnimationFloatVec3"},{"buffer":0,"byteOffset":37720,"byteLength":17568,"name":"bufferViewAnimationFloatVec4"}],"buffers":[{"uri":"omikuji_ani.bin","byteLength":55288}],"materials":[{"pbrMetallicRoughness":{"baseColorTexture":{"index":0},"metallicFactor":0.0,"roughnessFactor":0.450053632},"name":"omote"},{"pbrMetallicRoughness":{"metallicFactor":0.0,"roughnessFactor":0.450053632},"name":"ura"}],"textures":[{"sampler":0,"source":0,"name":"omi_01.jpg"}],"images":[{"uri":"omi_01.jpg"}],"samplers":[{"magFilter":9729,"minFilter":9987}],"animations":[{"channels":[{"sampler":0,"target":{"node":11,"path":"translation"}},{"sampler":1,"target":{"node":11,"path":"rotation"}},{"sampler":2,"target":{"node":11,"path":"scale"}},{"sampler":3,"target":{"node":12,"path":"translation"}},{"sampler":4,"target":{"node":12,"path":"rotation"}},{"sampler":5,"target":{"node":12,"path":"scale"}},{"sampler":6,"target":{"node":13,"path":"translation"}},{"sampler":7,"target":{"node":13,"path":"rotation"}},{"sampler":8,"target":{"node":13,"path":"scale"}},{"sampler":9,"target":{"node":14,"path":"translation"}},{"sampler":10,"target":{"node":14,"path":"rotation"}},{"sampler":11,"target":{"node":14,"path":"scale"}},{"sampler":12,"target":{"node":15,"path":"translation"}},{"sampler":13,"target":{"node":15,"path":"rotation"}},{"sampler":14,"target":{"node":15,"path":"scale"}},{"sampler":15,"target":{"node":16,"path":"translation"}},{"sampler":16,"target":{"node":16,"path":"rotation"}},{"sampler":17,"target":{"node":16,"path":"scale"}},{"sampler":18,"target":{"node":17,"path":"translation"}},{"sampler":19,"target":{"node":17,"path":"rotation"}},{"sampler":20,"target":{"node":17,"path":"scale"}},{"sampler":21,"target":{"node":18,"path":"translation"}},{"sampler":22,"target":{"node":18,"path":"rotation"}},{"sampler":23,"target":{"node":18,"path":"scale"}},{"sampler":24,"target":{"node":19,"path":"translation"}},{"sampler":25,"target":{"node":19,"path":"rotation"}},{"sampler":26,"target":{"node":19,"path":"scale"}}],"samplers":[{"input":13,"output":14},{"input":13,"output":15},{"input":13,"output":16},{"input":17,"output":18},{"input":17,"output":19},{"input":17,"output":20},{"input":21,"output":22},{"input":21,"output":23},{"input":21,"output":24},{"input":25,"output":26},{"input":25,"output":27},{"input":25,"output":28},{"input":29,"output":30},{"input":29,"output":31},{"input":29,"output":32},{"input":33,"output":34},{"input":33,"output":35},{"input":33,"output":36},{"input":37,"output":38},{"input":37,"output":39},{"input":37,"output":40},{"input":41,"output":42},{"input":41,"output":43},{"input":41,"output":44},{"input":45,"output":46},{"input":45,"output":47},{"input":45,"output":48}],"name":"All Animations"}],"skins":[{"inverseBindMatrices":12,"skeleton":1,"joints":[1,11,12,13,14,15,16,17,18,19],"name":"skeleton #0"}]}